# xmcd CD database file
#
# Track frame offsets:
#	150
#	23537
#	46855
#	70260
#
# Disc length: 1246 seconds
#
# Revision: 1
# Processed by: cddbd v1.5.2PL0 Copyright (c) Steve Scherf et al.
# Submitted via: CDex 1.70beta2
#
DISCID=2704dc04
DTITLE=井上昌己 - 純心
DYEAR=1995
DGENRE=Anime
TTITLE0=純心
TTITLE1=軽蔑
TTITLE2=純心 (オリジナル・カラオケ)
TTITLE3=軽蔑 (オリジナル・カラオケ)
EXTD=YEAR: 1995
EXTT0=
EXTT1=
EXTT2=
EXTT3=
PLAYORDER=
